<?xml version="1.0" standalone="no"?>
<!DOCTYPE svg PUBLIC "-//W3C//DTD SVG 20010904//EN"
 "http://www.w3.org/TR/2001/REC-SVG-20010904/DTD/svg10.dtd">
<svg version="1.0" xmlns="http://www.w3.org/2000/svg"
 width="1024.000000pt" height="1024.000000pt" viewBox="0 0 1024.000000 1024.000000"
 preserveAspectRatio="xMidYMid meet">

<g transform="translate(0.000000,1024.000000) scale(0.100000,-0.100000)"
fill="#000000" stroke="none">
<path d="M4780 7806 c-243 -32 -470 -87 -662 -162 -241 -93 -537 -264 -733
-424 -512 -417 -848 -986 -961 -1625 -46 -262 -53 -523 -23 -805 84 -799 556
-1551 1239 -1975 376 -233 784 -370 1217 -406 164 -14 462 -6 611 16 526 77
989 290 1411 651 182 155 326 320 472 539 385 579 526 1278 404 2000 -67 392
-264 833 -522 1162 -142 182 -378 406 -578 549 -341 243 -716 393 -1164 465
-164 27 -555 35 -711 15z m487 -601 c174 -41 307 -146 417 -329 42 -70 46 -60
11 26 -14 34 -25 63 -25 65 0 8 92 1 148 -12 127 -30 223 -101 279 -207 26
-48 28 -62 28 -158 0 -99 -2 -110 -33 -172 -19 -39 -55 -89 -89 -122 -55 -56
-165 -126 -196 -126 -32 0 -18 37 24 64 45 30 47 42 5 26 -44 -16 -82 -12
-169 19 -45 16 -108 34 -139 41 -32 7 -58 15 -58 18 0 2 14 20 31 40 30 34 75
119 67 127 -2 2 -19 -17 -38 -43 -47 -63 -117 -108 -191 -123 -33 -6 -58 -13
-56 -15 1 -2 45 -8 97 -15 112 -13 256 -48 328 -79 l52 -22 0 -140 c0 -129 -1
-140 -17 -133 -31 12 -246 17 -288 7 -39 -10 -39 -10 25 -11 73 -2 252 -25
269 -35 7 -5 11 -44 11 -100 l0 -93 -122 -7 c-68 -4 -166 -13 -218 -21 -128
-20 -494 -20 -623 -1 -53 8 -157 18 -231 22 l-136 7 0 98 0 98 43 5 c94 13
240 26 294 27 l58 2 -75 9 c-41 4 -130 6 -197 3 l-123 -6 0 136 0 136 33 14
c61 25 220 67 301 79 l81 12 -55 13 c-73 16 -128 50 -185 113 l-47 53 16 -39
c18 -44 27 -57 68 -101 l27 -30 -125 -38 -126 -37 -57 25 -56 25 48 -44 c45
-43 63 -86 34 -86 -34 0 -145 68 -202 124 -167 164 -179 386 -29 546 79 84
234 141 350 127 52 -5 61 -11 46 -30 -11 -12 -58 -116 -49 -107 3 3 23 30 46
60 127 170 273 276 431 315 74 18 211 18 287 0z m-403 -1579 c55 -14 128 -39
163 -55 l63 -30 0 -650 c0 -358 -2 -651 -4 -651 -2 0 -35 12 -72 26 -116 43
-243 64 -434 71 -166 5 -249 -1 -477 -33 l-43 -7 0 666 0 665 53 7 c135 19
218 23 427 20 205 -2 234 -5 324 -29z m1151 19 c66 -8 123 -15 128 -15 4 0 7
-299 7 -665 0 -548 -2 -665 -13 -665 -8 0 -58 7 -113 15 -168 26 -430 31 -575
10 -100 -14 -240 -50 -316 -81 -10 -5 -13 128 -13 645 l0 651 48 23 c82 42
181 69 322 91 67 10 417 4 525 -9z m-1985 -774 l0 -617 98 17 c326 58 624 47
868 -33 l69 -23 -270 -6 c-148 -4 -406 -7 -573 -8 l-302 -1 2 638 3 637 45 11
c25 6 48 9 53 7 4 -2 7 -282 7 -622z m2213 613 l46 -15 -2 -637 -2 -636 -285
3 c-157 2 -411 7 -565 10 -244 6 -276 8 -250 20 62 27 225 61 348 73 145 13
375 1 548 -31 l96 -17 5 86 c3 47 3 321 1 610 -3 476 -1 550 10 550 2 0 24 -7
50 -16z"/>
<path d="M4495 5211 c-4 -20 -15 -35 -25 -38 -23 -6 -39 -49 -30 -82 8 -35 26
-37 33 -4 15 67 43 67 54 1 l6 -41 24 27 c28 33 29 83 2 78 -11 -1 -18 7 -22
25 -3 16 -12 37 -20 47 -14 19 -15 18 -22 -13z"/>
<path d="M4320 4994 c-61 -13 -112 -45 -97 -60 4 -4 13 0 20 9 48 63 378 72
484 12 30 -16 43 -20 43 -10 0 53 -287 85 -450 49z"/>
<path d="M4335 4963 c-54 -14 -67 -23 -56 -37 20 -24 146 -39 272 -33 167 7
212 36 104 66 -39 11 -281 14 -320 4z"/>
<path d="M4891 4949 c-35 -6 -82 -18 -105 -28 -22 -11 -67 -27 -98 -36 -102
-29 -363 -19 -430 16 -47 25 12 -66 61 -95 26 -15 58 -21 140 -24 144 -6 211
9 259 56 20 20 41 36 45 34 5 -2 18 5 29 14 15 14 43 19 134 22 110 4 115 5
112 26 -4 25 -46 29 -147 15z"/>
<path d="M5717 5390 c-34 -27 -67 -118 -67 -186 0 -67 27 -126 71 -151 l31
-18 -6 -130 c-3 -71 -9 -184 -12 -249 -7 -109 -6 -120 11 -132 27 -20 53 -17
68 9 11 17 12 42 6 112 -4 50 -11 158 -15 240 l-7 150 33 19 c91 52 92 232 2
329 -31 33 -78 36 -115 7z"/>
<path d="M5427 5326 c-4 -43 -7 -99 -7 -123 0 -27 -4 -42 -10 -38 -6 4 -10 53
-10 116 0 66 -4 109 -10 109 -6 0 -10 -35 -11 -82 0 -46 -2 -92 -5 -103 -9
-49 9 -115 39 -145 l31 -30 -18 -238 c-9 -130 -14 -245 -11 -255 9 -21 53 -33
74 -20 20 13 21 72 2 325 l-13 188 31 35 c35 40 37 62 24 236 -7 85 -8 90 -14
49 -4 -25 -8 -78 -8 -118 -1 -46 -5 -71 -11 -67 -6 3 -10 51 -10 108 0 56 -5
109 -10 117 -7 10 -10 -23 -10 -102 0 -64 -4 -119 -9 -122 -5 -4 -12 37 -16
91 -9 152 -10 153 -18 69z"/>
</g>
</svg>
